# xmcd
#
# Track frame offsets:
# 150
# 28953
# 53856
# 77259
# 95411
# 125564
# 143868
# 160070
# 179723
# 202225
# 228028
# 262232
# 281434
#
# Disc length: 4120 seconds
#
# Revision: 1
# Processed by: cddbd v1.4PL0 Copyright (c) Steve Scherf et al.
# Submitted via: CedeCatalogueitor 2.5 http://usuarios.lycos.es/kakasboy
#
DISCID=bb10160d
DTITLE=Cotton Blues - Live At The Midnight
DYEAR=1999
DGENRE=
TTITLE0=El Dinero
TTITLE1=Crossroads
TTITLE2=Amigos Sigue Igual
TTITLE3=Amándote
TTITLE4=The Thrill Is Gone
TTITLE5=Brick
TTITLE6=Para Que
TTITLE7=Ayer Te Vi
TTITLE8=I´m Ready
TTITLE9=Sangre Española
TTITLE10=Congo Square
TTITLE11=What´d I Say
TTITLE12=Bolleré
EXTD=
EXTT0=
EXTT1=
EXTT2=
EXTT3=
EXTT4=
EXTT5=
EXTT6=
EXTT7=
EXTT8=
EXTT9=
EXTT10=
EXTT11=
EXTT12=
PLAYORDER=
